<svg id="Слой_1" data-name="Слой 1" xmlns="http://www.w3.org/2000/svg" viewBox="0 0 56.85 16.96"><defs><style>.cls-1{fill:#fff;}.cls-2{fill:#f60;}</style></defs><title>neoteric_software_logo</title><path class="cls-1" d="M122.67,908.67a.28.28,0,0,1-.08.2.25.25,0,0,1-.21.08h-1a.27.27,0,0,1-.29-.28v-1h.36v1h.86v-.95l-1.1-1.34a.44.44,0,0,1-.12-.3v-.81a.32.32,0,0,1,.08-.21.31.31,0,0,1,.21-.07h1a.28.28,0,0,1,.21.07.32.32,0,0,1,.08.21v.93h-.36v-.9h-.86v.84l1.11,1.34a.44.44,0,0,1,.11.29Z" transform="translate(-121.04 -892)"/><path class="cls-1" d="M130.66,908.67a.28.28,0,0,1-.08.2.26.26,0,0,1-.21.08h-1.12a.24.24,0,0,1-.2-.08.28.28,0,0,1-.08-.2v-3.43a.32.32,0,0,1,.08-.21.27.27,0,0,1,.2-.07h1.12a.3.3,0,0,1,.21.07.32.32,0,0,1,.08.21Zm-.36,0v-3.37h-1v3.37Z" transform="translate(-121.04 -892)"/><path class="cls-1" d="M138.35,905.27h-.94v1.52h.86v.32h-.86V909h-.35v-4h1.29Z" transform="translate(-121.04 -892)"/><path class="cls-1" d="M146.39,905.27h-.62V909h-.36v-3.68h-.62V905h1.6Z" transform="translate(-121.04 -892)"/><path class="cls-1" d="M154.75,905l-.54,4h-.29l-.43-3c0-.05,0-.13,0-.24,0,.06,0,.14,0,.24l-.44,3h-.29l-.54-4h.35l.34,2.88c0,.06,0,.16,0,.28,0-.06,0-.16,0-.28l.42-2.88h.3l.41,2.88c0,.06,0,.16,0,.28,0-.06,0-.16,0-.28l.34-2.88Z" transform="translate(-121.04 -892)"/><path class="cls-1" d="M162.25,909h-.35l-.14-.89H161l-.14.89h-.34l.71-4h.35Zm-.54-1.2-.35-2.17-.35,2.17Z" transform="translate(-121.04 -892)"/><path class="cls-1" d="M170.1,909h-.37l-.74-2.14,0-.07h.64v-1.47h-.91V909h-.36v-4h1.34a.27.27,0,0,1,.2.07.28.28,0,0,1,.08.21v1.52c0,.19-.13.28-.39.28h-.21C169.64,907.67,169.87,908.31,170.1,909Z" transform="translate(-121.04 -892)"/><path class="cls-1" d="M177.8,909h-1.32v-4h1.3v.31h-.94v1.5h.86v.32h-.86v1.55h1Z" transform="translate(-121.04 -892)"/><path class="cls-1" d="M126.41,903.43H125l-2.54-6.66a4,4,0,0,1,.11.77v5.89H121V892.85h1.39l2.54,6.53a3.84,3.84,0,0,1-.1-.77v-5.76h1.54Z" transform="translate(-121.04 -892)"/><path class="cls-1" d="M132.67,903.43h-4.39V892.85h4.35v1.4h-2.77v3.09h2.38v1.37h-2.38V902h2.81Z" transform="translate(-121.04 -892)"/><path class="cls-1" d="M153.76,894.25H152v9.18h-1.58v-9.18H148.7v-1.4h5.06Z" transform="translate(-121.04 -892)"/><path class="cls-1" d="M160,903.43h-4.39V892.85H160v1.4h-2.77v3.09h2.38v1.37h-2.38V902H160Z" transform="translate(-121.04 -892)"/><path class="cls-1" d="M167.33,903.43h-1.65l-1.75-4.91v-1h1.56v-3.35h-2v9.22h-1.58V892.85h4.2a.84.84,0,0,1,.95,1v3.85a.84.84,0,0,1-.45.87,3.5,3.5,0,0,1-1,.1Z" transform="translate(-121.04 -892)"/><path class="cls-1" d="M170.79,903.43h-1.58V892.85h1.58Z" transform="translate(-121.04 -892)"/><path class="cls-1" d="M177.89,902.47a.85.85,0,0,1-1,1h-3.3a.84.84,0,0,1-.94-1v-8.65c0-.65.31-1,.94-1h3.3a.85.85,0,0,1,1,1v2.48h-1.57v-2.09h-2v7.86h2v-2.22h1.57Z" transform="translate(-121.04 -892)"/><path class="cls-2" d="M140.68,892a6.14,6.14,0,1,0,6.14,6.14A6.14,6.14,0,0,0,140.68,892Zm0,11.92a5.78,5.78,0,1,1,5.78-5.78A5.79,5.79,0,0,1,140.68,903.92Z" transform="translate(-121.04 -892)"/><path class="cls-2" d="M140.68,894.29a3.85,3.85,0,1,0,3.85,3.85A3.85,3.85,0,0,0,140.68,894.29Zm0,7.34a3.49,3.49,0,1,1,3.49-3.49A3.5,3.5,0,0,1,140.68,901.63Z" transform="translate(-121.04 -892)"/><circle class="cls-2" cx="19.7" cy="6.14" r="1.75"/><circle class="cls-2" cx="22.13" cy="8.89" r="0.6"/><circle class="cls-2" cx="19.33" cy="2.5" r="0.87"/><circle class="cls-2" cx="16.15" cy="1.25" r="0.98"/></svg>